<svg width="184" height="257" viewBox="0 0 184 257" fill="none" xmlns="http://www.w3.org/2000/svg">
<g clip-path="url(#clip0_118_3214)">
<path fill-rule="evenodd" clip-rule="evenodd" d="M73.6046 5.80873C94.2627 -4.02575 117.45 -1.09634 125.249 12.5046C133.259 25.8962 122.931 44.7283 102.273 54.5627C81.6148 64.3972 58.6381 61.4678 50.628 47.8669C42.8285 34.4752 52.9467 15.6432 73.6046 5.80873ZM136 35.7307C134.735 46.6114 125.249 58.1198 110.704 65.2341C98.478 71.093 85.4091 72.3485 75.0801 69.6283C78.0313 69.6283 80.9824 69.4191 83.9335 69.0006C87.7279 68.5821 91.5218 67.7451 95.3166 66.4897C98.8996 65.4435 102.484 63.9787 106.067 62.3047L106.7 62.0955C108.597 61.2585 110.494 60.2123 112.39 59.1661C123.352 52.6795 131.362 44.3097 136 35.7307ZM76.5558 9.5751C92.5757 2.04233 110.915 4.34402 117.028 14.8062C118.293 16.8986 118.925 19.4096 119.136 21.9206C118.925 21.2928 118.504 20.6651 118.082 20.0374C111.758 9.5751 93.6304 7.0642 77.6097 14.8062C64.7512 20.8743 57.1626 31.5458 57.5842 40.7526C53.3683 30.2903 61.3785 16.8986 76.5558 9.5751Z" fill="#9B3589"/>
<path fill-rule="evenodd" clip-rule="evenodd" d="M24.0454 71H49.3454C49.7636 73.3223 50.3909 75.4336 51.4364 77.5448C51.8545 78.1782 52.0637 78.8115 52.4818 79.4449C59.8 92.1123 77.3637 97.8127 96.5998 95.0681C100.364 94.4348 104.336 93.8014 107.891 92.5347C111.445 91.479 115 90.0011 118.554 88.3121L119.182 88.101C121.273 87.0453 123.154 86.2009 124.827 85.1452C131.727 81.1339 137.373 76.2781 141.764 71H159.954C173.127 71 184 81.9784 184 95.2792V232.932C184 246.233 173.127 257 159.954 257H24.0454C10.8727 257 0 246.022 0 232.932V95.0681C0 81.7673 10.8727 71 24.0454 71ZM70.2545 199.574L69.8364 110.058C69.8364 108.369 71.0909 107.102 72.5546 107.102H110.818C112.281 107.102 113.537 108.369 113.537 110.058L113.955 199.574H136.118C137.582 199.574 138.836 201.474 138.836 203.585V213.509C138.836 215.831 137.582 217.52 136.118 217.52H47.8818C46.4182 217.52 45.1636 215.62 45.1636 213.509V203.585C45.1636 201.263 46.4182 199.574 47.8818 199.574H70.2545Z" fill="#234A98"/>
</g>
<defs>
<clipPath id="clip0_118_3214">
<rect width="184" height="257" fill="white"/>
</clipPath>
</defs>
</svg>