<svg width="256" height="256" viewBox="0 0 256 256" fill="none" xmlns="http://www.w3.org/2000/svg">
<mask id="mask0_153_4182" style="mask-type:luminance" maskUnits="userSpaceOnUse" x="4" y="4" width="248" height="248">
<path d="M251.488 4H4V251.533H251.488V4Z" fill="white"/>
</mask>
<g mask="url(#mask0_153_4182)">
<path d="M206.101 4.01172H210.989V112.706C210.989 119.893 213.775 148.446 213.775 155.259V251.519H203.316V150.371C203.316 144.352 206.101 115.593 206.101 107.997V4.01172Z" fill="#4CEA4C"/>
<path d="M226.301 4.01172H231.191V140.99C231.191 149.536 233.974 176.934 233.974 185.596V251.532H223.518V179.206C223.518 173.021 226.301 143.365 226.301 133.56V4.01172Z" fill="#4CEA4C"/>
<path d="M246.602 4.01172H251.49V251.519H243.817V214.163C243.817 206.668 246.602 182.555 246.602 177.358V4.01172Z" fill="#4CEA4C"/>
<path d="M109.985 4.01172H105.097V67.7011C105.097 74.3743 102.312 103.094 102.312 109.19V251.519H112.77V107.277C112.77 101.4 109.985 71.0249 109.985 64.5058V4.01172Z" fill="#4CEA4C"/>
<path d="M89.7795 4.01172H84.8911V82.6128C84.8911 89.0675 82.1064 119.289 82.1064 125.27V251.519H92.5642V124.487C92.5642 118.622 89.7795 85.8848 89.7795 79.3407V4.01172Z" fill="#4CEA4C"/>
<path d="M69.5781 4.01172H64.6897V95.8438C64.6897 102.516 61.9053 133.918 61.9053 140.155V251.519H72.3621V138.615C72.3621 132.713 69.5781 98.9747 69.5781 92.1604V4.01172Z" fill="#4CEA4C"/>
<path d="M49.3824 4.01172H44.4939V107.842C44.4939 115.016 41.71 148.446 41.71 155.273V251.532H52.167V153.386C52.167 147.368 49.3824 115.606 49.3824 108.009V4.01172Z" fill="#4CEA4C"/>
<path d="M29.1771 4.01172H24.2885V136.126C24.2885 144.673 21.5039 176.934 21.5039 185.596V251.532H31.9616V181.631C31.9616 175.446 29.1771 143.365 29.1771 133.547V4.01172Z" fill="#4CEA4C"/>
<path d="M8.88862 4.0128H4V251.52H11.6734V218.052C11.6734 210.558 8.88862 182.556 8.88862 177.346V4V4.0128Z" fill="#4CEA4C"/>
<path d="M125.292 4.01172H130.181V43.4213C130.181 50.1207 132.966 82.5366 132.966 88.5162V251.519H122.508V88.5162C122.508 82.5229 125.292 49.4271 125.292 43.4213V4.01172Z" fill="#4CEA4C"/>
<path d="M145.504 4.01172H150.393V67.7011C150.393 74.3743 153.177 103.094 153.177 109.19V251.519H142.72V104.005C142.72 98.1156 145.504 71.0249 145.504 64.5058V4.01172Z" fill="#4CEA4C"/>
<path d="M165.699 4.01172H170.588V82.6128C170.588 89.0675 173.372 118.199 173.372 124.179V251.519H162.915V119.302C162.915 113.438 165.699 85.8848 165.699 79.3407V4.01172Z" fill="#4CEA4C"/>
<path d="M185.906 4.01172H190.794V95.8438C190.794 102.516 193.579 131.468 193.579 137.691V251.519H183.121V132.879C183.121 126.976 185.906 98.9747 185.906 92.1604V4.01172Z" fill="#4CEA4C"/>
</g>
</svg>