<svg width="256" height="256" viewBox="0 0 256 256" fill="none" xmlns="http://www.w3.org/2000/svg">
<g clip-path="url(#clip0_62_52)">
<path d="M249.873 122.956C245.064 118.999 241.583 113.523 238.227 108.355C234.771 103.029 231.674 98.1456 227.224 93.5291C225.638 91.8846 224.052 90.3485 222.391 88.9043C222.55 86.7088 222.583 84.5049 222.541 82.2176C222.424 75.8063 221.164 70.1631 219.836 63.9521C218.551 57.9249 217.148 51.5887 217.749 45.3945L218.517 37.4889L210.612 38.257C204.418 38.858 198.082 37.4472 192.054 36.17C185.843 34.851 180.2 33.5821 173.789 33.4652C171.501 33.4235 169.298 33.4652 167.102 33.6155C165.658 31.9542 164.122 30.3681 162.477 28.782C157.861 24.3325 152.977 21.2354 147.651 17.7793C142.484 14.4234 137.007 10.9423 133.051 6.13384L128 -0.00195312L122.958 6.13384C119.001 10.9423 113.533 14.4234 108.357 17.7793C103.031 21.2354 98.1475 24.3325 93.5311 28.782C91.8865 30.3681 90.3505 31.9542 88.9063 33.6155C86.7107 33.4568 84.5069 33.4235 82.2195 33.4652C75.8083 33.5821 70.165 34.851 63.9541 36.17C57.9268 37.4556 51.599 38.8664 45.3965 38.257L37.4909 37.4889L38.2589 45.3945C38.86 51.5887 37.4575 57.9165 36.1719 63.9521C34.8529 70.1631 33.584 75.8063 33.4672 82.2176C33.4254 84.5049 33.4672 86.7088 33.6174 88.9043C31.9562 90.3485 30.3701 91.8846 28.7839 93.5291C24.3344 98.1456 21.2373 103.038 17.7813 108.355C14.4254 113.523 10.9442 118.999 6.13578 122.956L0 127.998L6.13578 133.049C10.9442 137.006 14.4254 142.473 17.7813 147.641C21.2373 152.967 24.3344 157.859 28.7839 162.475C30.3701 164.12 31.9562 165.656 33.6174 167.1C33.4588 169.296 33.4254 171.508 33.4672 173.787C33.584 180.198 34.8446 185.85 36.1719 192.052C37.4575 198.08 38.86 204.407 38.2589 210.61L37.4909 218.515L45.3965 217.747C51.5907 217.146 57.9268 218.557 63.9541 219.834C70.165 221.153 75.8083 222.422 82.2195 222.539C84.5069 222.581 86.7107 222.539 88.9063 222.389C90.3505 224.05 91.8865 225.636 93.5311 227.222C98.1475 231.672 103.031 234.769 108.357 238.225C113.525 241.581 119.001 245.062 122.949 249.871L128 256.006L133.042 249.871C136.999 245.062 142.475 241.581 147.643 238.225C152.969 234.769 157.852 231.672 162.469 227.222C164.113 225.636 165.65 224.05 167.094 222.389C169.289 222.548 171.501 222.581 173.78 222.539C180.192 222.422 185.835 221.162 192.046 219.834C198.073 218.549 204.401 217.138 210.604 217.747L218.509 218.515L217.741 210.61C217.14 204.416 218.551 198.08 219.828 192.052C221.147 185.841 222.416 180.198 222.533 173.787C222.575 171.499 222.533 169.296 222.383 167.1C224.044 165.656 225.63 164.12 227.216 162.475C231.666 157.859 234.763 152.975 238.219 147.641C241.575 142.473 245.056 136.997 249.864 133.049L256 128.006L249.864 122.956H249.873ZM178.322 129.96C191.854 132.915 204.793 148.209 208.333 161.273C196.596 168.002 176.627 169.68 164.973 162.2L157.235 157.224L162.202 164.963C169.69 176.617 168.012 196.585 161.275 208.323C148.219 204.783 132.909 191.852 129.962 178.32L128 169.329L126.038 178.32C123.091 191.852 107.789 204.791 94.7248 208.331C87.988 196.594 86.3184 176.625 93.7982 164.971L98.7653 157.233L91.0183 162.208C79.3645 169.688 59.3961 168.018 47.6588 161.282C51.1983 148.225 64.1294 132.923 77.6699 129.968L86.6607 128.006L77.6699 126.045C64.1377 123.098 51.1983 107.788 47.6671 94.7312C59.4044 87.9944 79.3729 86.3248 91.0267 93.8046L98.7653 98.7717L93.7982 91.0331C86.3184 79.3793 87.988 59.4108 94.7248 47.6735C107.789 51.2131 123.091 64.1441 126.038 77.6846L128 86.6754L129.962 77.6846C132.909 64.1525 148.219 51.2131 161.275 47.6819C168.004 59.4192 169.682 79.3876 162.193 91.0414L157.226 98.78L164.965 93.8129C176.619 86.3248 196.587 88.0027 208.325 94.7312C204.785 107.788 191.854 123.098 178.313 126.045L169.323 128.006L178.313 129.968L178.322 129.96ZM204.593 51.4134C204.827 56.5391 205.795 61.5396 206.788 66.5818C207.774 71.5655 209.042 75.8146 209.493 80.6648C209.159 80.5062 208.834 80.3476 208.491 80.1974C200.327 76.4825 188.632 74.6459 179.365 76.6411C181.369 67.3748 179.524 55.6793 175.809 47.5149C175.65 47.1726 175.492 46.8471 175.342 46.5131C180.192 46.9639 184.449 48.2412 189.425 49.2179C194.467 50.2113 199.467 51.1713 204.593 51.4134ZM115.728 28.8655C119.994 26.0021 124.21 23.1471 128.008 19.691C131.798 23.1471 136.022 26.0021 140.28 28.8655C144.504 31.6954 148.419 33.7908 152.167 36.9046C151.817 37.0298 151.466 37.155 151.107 37.2886C142.709 40.4358 133.134 47.398 128 55.3704C122.858 47.398 113.291 40.4358 104.893 37.2886C104.534 37.155 104.191 37.0381 103.833 36.9046C107.589 33.7908 111.504 31.6954 115.72 28.8655H115.728ZM49.2198 66.5818C50.2133 61.5396 51.1733 56.5391 51.4154 51.4134C56.5411 51.1713 61.5415 50.2113 66.5837 49.2179C71.5675 48.2328 75.8166 46.9639 80.6668 46.5131C80.5082 46.8471 80.3496 47.1726 80.1993 47.5149C76.4844 55.6793 74.6479 67.3748 76.643 76.6411C67.3684 74.6376 55.6812 76.4825 47.5168 80.1974C47.1746 80.356 46.849 80.5146 46.5151 80.6648C46.9659 75.8146 48.2431 71.5572 49.2198 66.5818ZM28.8591 140.278C25.9957 136.012 23.1407 131.796 19.6846 128.006C23.1407 124.216 25.9957 119.992 28.8591 115.726C31.689 111.511 33.7844 107.587 36.8982 103.839C37.0234 104.19 37.1486 104.54 37.2822 104.899C40.4294 113.297 47.3916 122.872 55.364 128.006C47.3916 133.149 40.4294 142.716 37.2822 151.114C37.1486 151.473 37.0318 151.815 36.8982 152.174C33.7844 148.417 31.689 144.502 28.8591 140.286V140.278ZM51.407 204.591C51.1649 199.465 50.2049 194.465 49.2115 189.423C48.2264 184.439 46.9575 180.19 46.5067 175.34C46.8407 175.498 47.1662 175.657 47.5085 175.807C55.6729 179.522 67.3684 181.359 76.6347 179.363C74.6312 188.63 76.4761 200.325 80.1909 208.49C80.3496 208.832 80.5082 209.157 80.6668 209.491C75.8166 209.04 71.5591 207.763 66.5837 206.787C61.5415 205.793 56.5411 204.833 51.4154 204.591H51.407ZM140.272 227.139C136.006 230.002 131.782 232.857 127.992 236.313C124.202 232.857 119.978 230.002 115.712 227.139C111.496 224.309 107.572 222.214 103.824 219.1C104.175 218.975 104.525 218.849 104.876 218.716C113.274 215.569 122.849 208.598 127.983 200.634C133.126 208.606 142.692 215.569 151.091 218.716C151.45 218.849 151.792 218.966 152.151 219.1C148.403 222.214 144.479 224.309 140.263 227.139H140.272ZM206.78 189.423C205.787 194.465 204.827 199.465 204.585 204.591C199.459 204.825 194.458 205.793 189.416 206.787C184.433 207.772 180.183 209.04 175.333 209.491C175.492 209.157 175.65 208.832 175.801 208.49C179.516 200.325 181.352 188.63 179.357 179.363C188.623 181.367 200.319 179.522 208.483 175.807C208.825 175.648 209.151 175.49 209.485 175.34C209.034 180.19 207.757 184.447 206.78 189.423ZM227.141 140.278C224.311 144.494 222.216 148.417 219.102 152.166C218.977 151.815 218.851 151.464 218.718 151.105C215.571 142.707 208.6 133.132 200.636 127.998C208.608 122.856 215.571 113.289 218.718 104.891C218.851 104.532 218.968 104.19 219.102 103.831C222.216 107.587 224.311 111.502 227.141 115.718C230.004 119.984 232.859 124.208 236.315 127.998C232.859 131.788 230.004 136.012 227.141 140.278Z" fill="#D1AA3B"/>
</g>
<defs>
<clipPath id="clip0_62_52">
<rect width="256" height="256" fill="white"/>
</clipPath>
</defs>
</svg>
