<svg width="256" height="256" viewBox="0 0 256 256" fill="none" xmlns="http://www.w3.org/2000/svg">
<g clip-path="url(#clip0_36_1355)">
<path fill-rule="evenodd" clip-rule="evenodd" d="M237.473 61.2796C226.536 43.3421 211.313 28.3153 193.252 17.6289C174.308 6.42828 152.198 0 128.57 0C104.942 0 82.8309 6.42828 63.8876 17.6289C45.8258 28.305 30.6138 43.3421 19.666 61.2796C39.5422 68.181 55.3078 83.7631 62.5858 103.418C66.153 93.781 71.7499 85.1413 78.8639 78.0239C91.5953 65.2702 109.175 57.3814 128.57 57.3814C147.964 57.3814 165.554 65.2702 178.286 78.0342C185.389 85.1516 190.986 93.7913 194.543 103.418C201.831 83.7014 217.618 68.1912 237.463 61.2898L237.473 61.2796Z" fill="#B1B3B3"/>
<path fill-rule="evenodd" clip-rule="evenodd" d="M190.156 162.2C186.958 168.001 182.96 173.287 178.337 177.936C165.596 190.711 148.005 198.62 128.57 198.62C109.135 198.62 91.5343 190.711 78.8029 177.936C66.0613 165.152 58.1887 147.502 58.1887 128.001C58.1887 101.033 40.8445 77.3156 15.2792 69.0771C10.9022 77.5316 7.43745 86.5209 5.01828 95.9319C2.3941 106.135 1 116.883 1 128.001C1 163.352 15.2792 195.349 38.3639 218.512C61.4485 241.674 93.3384 256.001 128.57 256.001C145.269 256.001 161.116 249.316 172.771 237.303C183.586 226.174 190.238 210.973 190.167 194.218L190.146 162.2H190.156Z" fill="#00355F"/>
<path fill-rule="evenodd" clip-rule="evenodd" d="M256.142 128.001C256.142 116.883 254.748 106.135 252.123 95.9319C249.704 86.5312 246.24 77.5316 241.862 69.0771C216.4 77.1922 199.004 101.013 198.933 127.837V194.208C199.004 214.542 190.301 233.826 175.079 247.228C191.86 240.635 206.918 230.576 219.362 217.925C242.098 194.814 256.142 163.054 256.142 128.001Z" fill="#D70B0E"/>
</g>
<defs>
<clipPath id="clip0_36_1355">
<rect width="254" height="256" fill="white" transform="translate(1)"/>
</clipPath>
</defs>
</svg>
