<svg width="287" height="255" viewBox="0 0 287 255" fill="none" xmlns="http://www.w3.org/2000/svg">
<path fill-rule="evenodd" clip-rule="evenodd" d="M126.741 140.936C127.925 152.949 128.516 159.25 118.851 169.49C108.79 180.124 83.3438 199.816 57.3055 214.782C46.4562 221.084 31.4644 228.764 20.2206 232.899C11.9357 235.853 4.83434 237.231 1.28366 231.127C-0.886208 227.188 0.100094 223.644 1.28366 220.493C10.3576 196.075 36.3959 150.192 53.3603 120.456C55.1356 117.503 56.911 114.352 58.6863 111.201C84.9219 66.1057 119.64 10.9672 126.347 2.10568C127.333 0.727216 129.108 -0.651295 130.686 0.33332C132.067 1.12101 132.067 2.69649 131.87 3.87803C131.87 4.07495 131.475 5.65024 131.278 6.241C120.034 51.7303 121.218 96.4318 126.544 140.936H126.741ZM165.01 154.918C153.963 149.995 148.242 147.238 144.297 133.651C140.155 119.669 135.815 87.7672 135.815 57.638C135.815 32.04 136.385 28.901 137.766 21.2897C138.01 19.9424 138.28 18.4551 138.577 16.6781C140.155 8.01351 142.522 1.31803 149.426 1.31803C154.971 1.31803 156.19 3.09626 157.579 5.12256C157.919 5.61934 158.27 6.13104 158.697 6.63509C175.135 26.327 201.054 70.4343 218.42 99.991L219.454 101.749C221.227 104.699 223.001 107.846 224.774 110.993L224.78 111.004C250.818 156.1 281.394 213.797 285.536 224.037C286.128 225.613 286.523 227.779 284.944 228.764C283.564 229.551 282.183 228.764 281.394 227.976L279.618 226.204C245.69 193.712 206.435 172.444 165.207 154.721L165.01 154.918ZM162.445 173.822C148.637 170.475 143.508 174.02 133.645 181.109H133.448C97.3493 207.89 59.2781 231.324 14.1056 244.32L11.7384 245.108C11.6717 245.136 11.6031 245.161 11.5333 245.189C10.5716 245.563 9.3713 246.03 9.3713 247.865C9.3713 249.834 11.5412 250.622 13.1193 250.819C24.1658 252.197 89.2617 254.757 141.536 254.757H152.385C186.708 254.561 239.377 254.167 265.218 249.834C268.572 249.244 272.32 248.456 274.49 244.517C278.04 238.413 273.306 233.096 266.599 227.385C257.525 219.705 243.323 210.647 232.473 204.345C206.435 189.379 176.648 177.17 162.445 173.822Z" fill="#110C30"/>
</svg>