<svg width="256" height="256" viewBox="0 0 256 256" fill="none" xmlns="http://www.w3.org/2000/svg">
<g clip-path="url(#clip0_36_4376)">
<g clip-path="url(#clip1_36_4376)">
<path fill-rule="evenodd" clip-rule="evenodd" d="M127.669 22.6165L22.5589 128.005L127.669 233.383L232.789 128.005L127.669 22.6165ZM212.514 85.221V42.9426H170.334L127.669 0L85.0038 42.9426H42.6651V85.221L0 128.005L42.6651 170.779V213.057H85.0038L127.669 256L170.334 213.057H212.514V170.779L255.18 128.005L212.514 85.221ZM201.883 173.892V202.577H173.439L162.818 213.067L127.669 248.464L92.5201 213.067L81.8984 202.577H53.2967V173.892L42.6651 163.234L7.51634 128.005L42.6651 92.7664L53.2967 82.1175V53.6015H81.8984L127.669 7.53554L162.818 42.9426L173.439 53.5915H201.883V82.1076L212.514 92.7565L247.663 127.995L212.514 163.234L201.883 173.892Z" fill="#007A5D"/>
<path fill-rule="evenodd" clip-rule="evenodd" d="M201.896 82.1072V53.5912H173.453L127.672 7.53516L95.965 39.3331L81.9016 53.5912H53.2999V82.1072L7.51953 128.005L53.2901 173.892V202.577H81.8917L95.9552 216.666L127.662 248.454L173.433 202.567H201.876V173.882L247.657 127.995L201.876 82.1072H201.896ZM53.2999 158.811L22.5621 128.005L95.965 54.4141L96.9441 53.5912L127.672 22.6161L158.41 53.5912C165.274 60.9681 169.526 70.9626 169.526 81.78C169.526 104.892 150.726 123.731 127.672 123.731C116.566 123.731 105.934 125.704 95.965 129.145C79.2906 135.044 64.5745 145.366 53.2999 158.811ZM158.41 202.567L127.672 233.373L96.9441 202.567C96.6178 202.24 96.2914 201.902 95.965 201.585C89.7542 194.208 85.8279 184.541 85.8279 174.209C85.8279 163.878 89.7443 154.22 95.965 146.843C103.64 137.999 115.082 132.258 127.672 132.258C157.431 132.258 184.233 118.655 201.896 97.1882L232.792 128.005L201.896 158.811L158.41 202.567Z" fill="#F9B101"/>
</g>
</g>
<defs>
<clipPath id="clip0_36_4376">
<rect width="256" height="256" rx="20" fill="white"/>
</clipPath>
<clipPath id="clip1_36_4376">
<rect width="256" height="256" fill="white"/>
</clipPath>
</defs>
</svg>
