<svg width="252" height="256" viewBox="0 0 252 256" fill="none" xmlns="http://www.w3.org/2000/svg">
<g clip-path="url(#clip0_109_2)">
<path fill-rule="evenodd" clip-rule="evenodd" d="M123.534 0L0 127.186L121.912 256L196.683 184.257C190.47 183.738 182.592 181.556 173.065 177.722C152.45 162.478 110.237 158.548 72.3463 160.643C107.553 142.724 138.687 138.102 160.924 148.385C187.45 159.768 207.495 162.487 221.069 156.54L251.952 127.186C232.468 138.855 215.14 146.732 199.988 147.554C182.436 148.108 143.381 107.615 69.0931 125.576C96.4905 110.203 122.585 100.638 154.426 109.251L206.442 125.559C218.359 128.814 231.355 128.814 245.437 125.559L226.747 104.351C214.019 107.744 201.282 109.095 188.563 105.996C148.127 85.896 113.55 89.3412 68.2993 92.1285C96.8874 74.4957 127.486 64.9911 162.555 73.3791L209.696 86.424L123.534 0Z" fill="#01A0E2"/>
</g>
<defs>
<clipPath id="clip0_109_2">
<rect width="252" height="256" fill="white"/>
</clipPath>
</defs>
</svg>