<svg width="256" height="256" viewBox="0 0 256 256" fill="none" xmlns="http://www.w3.org/2000/svg">
<path d="M149.674 218.085C148.626 214.63 147.562 211.176 146.536 207.713C143.707 198.127 141.176 188.467 139.297 178.651C137.44 168.953 136.273 159.197 136.587 149.292C137.193 130.142 145.032 114.595 160.081 102.54C166.347 97.5207 173.115 93.2725 180.273 89.6175C195.396 81.907 211.186 75.8795 227.559 71.3275C230.277 70.5713 233.039 69.9707 235.936 69.5703C235.614 69.8299 235.308 70.119 234.963 70.3414C226.062 75.887 217.04 81.2546 208.28 87.0152C197.357 94.1992 187.16 102.31 178.348 111.993C172.68 118.22 167.582 124.878 163.884 132.462C160.058 140.314 157.16 148.499 155.237 157.017C152.878 167.455 151.508 178.028 151.006 188.704C150.55 198.475 150.22 208.254 149.832 218.025L149.666 218.092L149.674 218.085Z" fill="#095052"/>
<path d="M214.339 38.6228C210.67 42.1444 207.054 45.7253 203.311 49.1728C194.042 57.7284 184.422 65.8836 173.88 72.9045C164.881 78.8949 155.373 83.8993 145.004 87.1836C135.713 90.127 126.197 91.2464 116.502 90.0825C106.432 88.8815 97.1333 85.3969 88.8005 79.7104C82.9384 75.707 77.2259 71.4736 71.6857 67.0402C62.0951 59.3668 53.1934 50.9372 44.5985 42.1888C43.5878 41.1583 42.6219 40.0759 41.6487 39.0157C41.4765 38.8304 41.3418 38.6079 40.8926 38C41.9107 38.4819 42.5172 38.734 43.1011 39.0454C51.8457 43.6271 60.5378 48.3127 69.3498 52.7759C78.3489 57.3354 87.6101 61.3389 97.313 64.2451C107.66 67.3441 118.231 68.9381 129.065 68.5378C137.675 68.219 146.119 66.7436 154.467 64.6751C171.934 60.3528 188.142 53.0724 203.685 44.2202C207.151 42.2481 210.648 40.3131 214.129 38.3633C214.197 38.4522 214.272 38.5338 214.339 38.6228Z" fill="#095052"/>
<path d="M20.2321 69.3203C28.6622 71.9745 37.1223 74.5619 45.5225 77.305C55.5922 80.5894 65.4747 84.3556 74.9306 89.1376C82.5446 92.9854 89.7095 97.5004 96.1406 103.12C107.386 112.951 114.513 125.065 117.118 139.73C118.421 147.062 118.496 154.439 117.949 161.831C116.976 174.916 113.929 187.631 110.912 200.36C109.841 204.891 108.786 209.42 107.708 213.95C107.506 214.803 107.244 215.641 106.682 216.486C106.637 216.004 106.555 215.522 106.54 215.04C106.42 209.635 106.375 204.223 106.173 198.818C105.836 189.996 105.364 181.188 104.249 172.41C103.193 164.115 101.741 155.907 99.1653 147.93C96.2455 138.878 92.3524 130.285 86.4453 122.708C81.3542 116.183 75.6418 110.23 69.3604 104.803C56.8574 94.0011 43.1417 84.845 29.3435 75.7852C27.3221 74.4581 25.2782 73.1756 23.2493 71.8633C22.1562 71.1589 21.0781 70.425 20 69.7059C20.0824 69.5798 20.1497 69.4464 20.2321 69.3203Z" fill="#095052"/>
</svg>