<svg xmlns="http://www.w3.org/2000/svg" viewBox="0 0 20 14" width="20" height="14">
  <rect width="20" height="14" fill="#ffffff"/>
  <rect width="20" height="4.2" y="0" fill="#0099b5"/>
  <rect width="20" height="4.2" y="4.2" fill="#ffffff"/>
  <rect width="20" height="0.6" y="4.2" fill="#ce1126"/>
  <rect width="20" height="0.6" y="9.2" fill="#ce1126"/>
  <rect width="20" height="4.2" y="9.8" fill="#1eb53a"/>
  <circle cx="3.1" cy="2.1" r="1.35" fill="#ffffff"/>
  <circle cx="3.55" cy="2.1" r="1.1" fill="#0099b5"/>
  <g fill="#ffffff">
    <circle cx="6.2" cy="1.1" r="0.16"/>
    <circle cx="6.9" cy="1.5" r="0.16"/>
    <circle cx="7.5" cy="2.1" r="0.16"/>
    <circle cx="6.9" cy="2.7" r="0.16"/>
    <circle cx="6.2" cy="3.1" r="0.16"/>
    <circle cx="7.9" cy="1.1" r="0.16"/>
    <circle cx="8.6" cy="0.8" r="0.16"/>
    <circle cx="9.3" cy="1.1" r="0.16"/>
    <circle cx="8.9" cy="1.8" r="0.16"/>
    <circle cx="8.9" cy="2.4" r="0.16"/>
    <circle cx="9.3" cy="3.1" r="0.16"/>
    <circle cx="8.6" cy="3.4" r="0.16"/>
  </g>
</svg>
