<svg width="256" height="256" viewBox="0 0 256 256" fill="none" xmlns="http://www.w3.org/2000/svg">
<g clip-path="url(#clip0_103_2409)">
<g clip-path="url(#clip1_103_2409)">
<path fill-rule="evenodd" clip-rule="evenodd" d="M0.629059 127.517C0.629059 110.781 3.93639 94.218 10.4196 78.7561C16.9029 63.2943 26.4087 49.2361 38.3895 37.4021C50.3704 25.5682 64.6072 16.1529 80.2896 9.73924C95.9721 3.32559 112.772 0 129.746 0V46.04C113.385 46.0616 97.4177 50.8773 83.816 59.8607C70.2363 68.8441 59.6572 81.6066 53.4368 96.507C47.2164 111.407 45.6175 127.819 48.8372 143.627C52.0569 159.434 59.9857 173.946 71.5723 185.326C83.1808 196.707 97.9214 204.416 113.976 207.526C130.031 210.614 146.655 208.951 161.746 202.732C176.837 196.512 189.716 186.017 198.74 172.564C207.786 159.11 212.561 143.346 212.495 127.215H258.601C259.126 144.275 256.147 161.27 249.883 177.163C243.619 193.079 234.179 207.59 222.132 219.835C210.086 232.079 195.652 241.818 179.707 248.469C163.761 255.121 146.633 258.554 129.308 258.554C111.983 258.554 94.855 255.121 78.9317 248.469C62.9864 241.818 48.5525 232.079 36.5059 219.835C24.4593 207.59 15.0192 193.079 8.75501 177.163C2.4908 161.227 -0.466083 144.231 0.0595851 127.172L0.629059 127.517Z" fill="#016531"/>
<path d="M72.81 127.518C72.81 116.289 76.183 105.297 82.5348 95.9464C88.8648 86.5958 97.8668 79.3184 108.402 75.021C118.937 70.7237 130.524 69.6007 141.694 71.7818C152.865 73.9845 163.137 79.3832 171.198 87.33C179.258 95.2769 184.755 105.405 186.968 116.418C189.202 127.432 188.041 138.877 183.682 149.242C179.323 159.629 171.942 168.505 162.458 174.746C152.974 180.987 141.826 184.312 130.436 184.312C115.148 184.312 100.495 178.33 89.6752 167.663C78.8552 156.995 72.7881 142.548 72.7881 127.475L72.81 127.518Z" fill="#52AE30"/>
<path d="M169.984 55.8037C170.006 49.4117 171.956 43.1492 175.57 37.8369C179.184 32.5246 184.331 28.4 190.332 25.9598C196.333 23.5196 202.948 22.8933 209.3 24.1674C215.674 25.4199 221.5 28.5295 226.099 33.0644C230.677 37.5993 233.809 43.3651 235.058 49.6492C236.306 55.9333 235.649 62.4333 233.174 68.3503C230.677 74.2673 226.472 79.3204 221.084 82.862C215.674 86.4251 209.344 88.3039 202.839 88.3039C194.121 88.2823 185.754 84.8271 179.6 78.7374C173.445 72.6477 169.984 64.3985 169.984 55.7821V55.8037Z" fill="#016531"/>
</g>
</g>
<defs>
<clipPath id="clip0_103_2409">
<rect width="256" height="256" fill="white"/>
</clipPath>
<clipPath id="clip1_103_2409">
<rect width="256" height="256" fill="white"/>
</clipPath>
</defs>
</svg>