<svg width="255" height="256" viewBox="0 0 255 256" fill="none" xmlns="http://www.w3.org/2000/svg">
<g clip-path="url(#clip0_118_3358)">
<path d="M83.6527 248.247C149.606 272.418 222.531 238.176 246.537 171.766C261.751 129.675 253.663 84.764 228.907 51.3614L218.395 80.443C231.125 105.233 233.918 135.101 223.691 163.393C204.279 217.099 145.304 244.791 91.968 225.243C88.8149 224.087 85.7523 222.793 82.7844 221.368L112.07 140.349H133.238L114.92 191.025L157.216 191.133L213.858 34.4328C201.729 23.0214 187.166 13.8296 170.583 7.75203C104.63 -16.4195 31.7036 17.8221 7.69863 84.233C-7.51565 126.324 0.572821 171.235 25.3285 204.637L35.8403 175.555C23.11 150.766 20.3174 120.898 30.544 92.6054C49.9568 38.8995 108.931 11.2084 162.267 30.7558C165.42 31.9113 168.483 33.2061 171.451 34.6306L142.086 115.87H120.918L139.315 64.9733L97.0189 64.8657L40.3772 221.566C52.5065 232.977 67.0698 242.169 83.6527 248.247Z" fill="#17A755"/>
</g>
<defs>
<clipPath id="clip0_118_3358">
<rect width="254.235" height="255.999" fill="white"/>
</clipPath>
</defs>
</svg>