<svg width="256" height="256" viewBox="0 0 256 256" fill="none" xmlns="http://www.w3.org/2000/svg">
<g clip-path="url(#clip0_148_3707)">
<path d="M61.9555 42.6678C61.4355 44.2492 61.0714 45.8771 60.8684 47.5285C46.4363 52.3893 40.4841 62.3809 41.0005 79.3935V256.001H92.6406V15.9336C77.9911 23.2247 65.4616 31.8661 61.9555 42.6678Z" fill="#BF945D"/>
<path d="M194.045 42.6678C194.565 44.2492 194.929 45.8771 195.132 47.5285C209.537 52.3893 215.517 62.3809 214.973 79.3935V256.001H163.306V15.9336C178.281 23.2247 190.485 31.8661 194.045 42.6678Z" fill="#BF945D"/>
<path d="M128.544 0C119.717 3.16288 111.095 6.86039 102.724 11.0717V256H153.277V10.8017C145.235 6.76 136.978 3.15416 128.544 0Z" fill="#BF945D"/>
<path d="M76.6317 224.945L60.8679 181.738H56.791H53.5295H52.4424V232.506H56.791V189.84L72.2831 232.506H76.6317H80.9803V181.738H76.6317V224.945Z" fill="white"/>
<path d="M204.917 181.738H200.569V193.08V216.574C200.569 220.894 199.481 228.726 192.415 228.726C191.187 228.85 189.948 228.668 188.809 228.196C187.67 227.725 186.668 226.979 185.892 226.025C184.274 223.048 183.522 219.682 183.718 216.304V213.063V181.738H176.108V218.194C175.972 220.548 176.155 222.909 176.651 225.215C177.228 226.836 178.156 228.31 179.369 229.536C180.821 230.861 182.471 231.954 184.261 232.776C186.198 233.396 188.208 233.759 190.241 233.856C195.133 233.856 198.938 232.776 200.84 230.076C203.152 226.857 204.293 222.952 204.075 219.004V211.443V181.738H204.917Z" fill="white"/>
<path d="M136.127 206.312C139.388 204.691 141.563 200.911 141.563 194.7C141.563 182.548 130.963 182.008 125.527 182.008H113.568V232.776H126.071C132.05 232.776 143.193 232.776 143.193 218.464C143.221 211.172 139.959 207.932 136.127 206.312ZM121.722 185.518H126.071C129.876 185.518 134.768 185.518 134.768 194.7C134.768 204.961 129.876 204.421 126.071 204.421H121.722V185.518ZM125.799 229.265H121.45V208.472H125.799C130.148 208.472 135.04 208.472 135.04 218.734C135.04 228.995 130.175 229.265 125.826 229.265H125.799Z" fill="white"/>
</g>
<defs>
<clipPath id="clip0_148_3707">
<rect width="174" height="256" fill="white" transform="translate(41)"/>
</clipPath>
</defs>
</svg>